<svg xmlns="http://www.w3.org/2000/svg" viewBox="0 0 2392 1340"><path d="M1589 19.614c-122.939 8.277-239.285 38.689-373.5 97.63-23.693 10.405-78.493 36.968-98 47.503a8816.622 8816.622 0 0 1-19.815 10.656l-10.815 5.796-16.185-1.086c-334.333-22.432-623.03 69.889-723.446 231.348-48.193 77.488-52.93 170.64-13.09 257.429 4.682 10.2 4.678 10.001.389 20.02-12.21 28.528-21.499 64.936-24.134 94.59-.391 4.4-.89 7.48-1.109 6.844-.22-.636-7.955-34.836-17.19-76L275.314 639.5l-33.657-.263c-18.511-.145-33.657.115-33.657.577 0 .463 15.709 57.956 34.909 127.764 19.199 69.807 35.417 128.835 36.038 131.172l1.13 4.25h48.478l2.875 6.75c14.862 34.893 50.095 81.149 81.32 106.762l3.25 2.666v12.266c0 148.12 89.267 252.248 242.734 283.145 39.477 7.947 61.482 9.919 110.266 9.878 39.585-.033 48.668-.521 84.5-4.548 125.676-14.122 285.667-67.578 421-140.666 4.95-2.673 13.862-7.466 19.804-10.651l10.805-5.79 17.195 1.121c350.258 22.833 642.267-76.97 733.46-250.683l5.381-10.25H2179v-53h-50c-27.5 0-49.989-.337-49.976-.75.014-.413.489-2.766 1.057-5.23 1.668-7.238 3.735-23.681 4.465-35.52.373-6.05.88-11.337 1.125-11.75.246-.413 19.77-.75 43.388-.75H2172v-51.98l-46.15-.26-46.15-.26-2.839-12.416c-1.562-6.829-4.87-18.399-7.35-25.713-2.481-7.313-4.511-13.538-4.511-13.834 0-.295 25.65-.537 57-.537h57v-52h-56.833c-31.259 0-57.093-.26-57.411-.577-.317-.318.749-4.48 2.37-9.25 29.783-87.654 15.774-177.454-38.949-249.673-11.129-14.687-37.163-42.362-48.927-52.012l-3.25-2.666v-12.266c0-81.97-28.347-153.629-80.423-203.305C1843.63 59.698 1774.778 31.512 1681 21.41c-13.729-1.479-78.059-2.735-92-1.796m22 .63c-.275.264-8.828.756-19.007 1.091-112.234 3.701-261.335 43.719-395.493 106.15a5925.98 5925.98 0 0 1-14.236 6.601c-8.127 3.751-55.3 27.337-61.764 30.881-2.75 1.508-8.6 4.674-13 7.036-17.523 9.406-18.213 9.994-11.75 10.001 5.508.007 52.151 4.655 71.25 7.101 19.435 2.489 22.199 2.37 58-2.489 49.417-6.706 104.23-11.479 156-13.583 21.123-.859 110.537-.584 116 .356 1.375.237 9.025.721 17 1.075 180.698 8.039 351.304 61.56 451.395 141.607l8.895 7.113-.581-22.342c-4.186-160.941-117.237-264.544-304.209-278.784-15.565-1.185-57.793-2.495-58.5-1.814m-241.5 154.784c-29.937 1.452-70.001 4.514-98.5 7.529-26.951 2.851-72.928 9.038-73.824 9.934-.28.28-.254.509.058.509 3.65 0 60.356 9.385 85.266 14.111 77.864 14.775 184.453 43.784 248 67.495 3.3 1.231 12.3 4.583 20 7.448 146.851 54.645 275.247 128.693 369.884 213.319 6.537 5.845 12.242 10.627 12.679 10.627.898 0 2.826-4.906 10.577-26.925 16.596-47.144 27.687-99.42 29.944-141.135l.679-12.56-5.381-4.555c-43.94-37.188-111.382-72.443-184.882-96.645-71.031-23.39-138.751-36.659-233-45.655-2.475-.236-12.15-.92-21.5-1.52-9.35-.601-19.025-1.307-21.5-1.571-8.462-.9-121.468-1.232-138.5-.406m-445.551 4.304c-.247.219-8.555.686-18.463 1.039-35.883 1.277-80.576 5.462-124.986 11.703-41.919 5.891-96.315 17.461-136 28.926-270.769 78.226-391.734 250.373-310.92 442.474l5.722 13.601 7.682-14.795c77.91-150.04 263.3-290.29 504.016-381.295 27.147-10.263 34.832-12.981 66.514-23.531 31.404-10.456 35.172-11.626 66.486-20.642 19.141-5.511 21.071-6.332 33.234-14.148 10.555-6.781 34.362-21.071 52.016-31.22 7.563-4.348 13.75-8.252 13.75-8.675 0-.423-2.362-.804-5.25-.846-2.888-.043-16.05-.647-29.25-1.342-21.964-1.158-123.504-2.175-124.551-1.249m157.551 7.032c-10.689 5.961-36.775 21.239-45.5 26.649-4.675 2.898-10.688 6.574-13.362 8.169-8.717 5.197-12.517 8.13-9.638 7.438 1.375-.33 15.1-3.728 30.5-7.55 40.981-10.173 81.861-18.694 125.431-26.143 13.554-2.318 13.806-2.448 6.341-3.283a4712.873 4712.873 0 0 1-18.272-2.111c-16.634-1.951-50.409-5.245-61-5.949-8.257-.549-8.671-.47-14.5 2.78m90.5 9.66c-55.361 9.457-111.604 21.633-157.235 34.04-9.743 2.649-12.177 3.829-25.029 12.137-43.534 28.143-91.012 62.518-133.619 96.745-7.911 6.355-15.817 12.679-17.569 14.054-18.843 14.791-63.556 54.512-93.034 82.65-36.484 34.824-59.586 59.031-99.359 104.107-5.174 5.864-20.396 24.308-38.991 47.243C598.181 598.079 569 637.422 569 638.453c0 .258 3.727.599 8.282.758l8.282.289-33.727 122c-18.55 67.1-33.752 122.466-33.782 123.035-.097 1.828 30.467 24.134 59.56 43.466 24.357 16.185 58.533 36.795 82.885 49.984 4.4 2.383 10.46 5.678 13.466 7.324 9.529 5.215 54.075 27.267 66.034 32.689a79998.52 79998.52 0 0 0 16.536 7.496c115.362 52.289 266.199 96.768 399.964 117.941 12.65 2.003 27.106 4.299 32.124 5.103 5.018.804 11.318 1.454 14 1.444 13.475-.05 97.024-16.376 143.847-28.107 41.49-10.396 39.974-9.851 55.793-20.076 43.534-28.143 91.012-62.518 133.619-96.745 7.911-6.355 15.817-12.679 17.569-14.054 15.825-12.421 53.11-45.231 81.742-71.932l16.694-15.568-4.444-.305-4.444-.305V771.052c0-119.297.15-131.896 1.582-132.445 2.005-.77 64.184-.777 67.05-.008 2.21.593 2.485 1.13 27.392 53.401a18474.56 18474.56 0 0 0 17.921 37.5c3.96 8.25 9.71 20.287 12.777 26.749 6.246 13.16 5.733 12.968 12.173 4.558 50.474-65.914 74.049-100.904 103.647-153.831 16.705-29.872 43.307-85.558 46.003-96.297.503-2.008-.928-3.744-9.727-11.798-50.614-46.328-120.092-94.832-190.318-132.866-4.4-2.383-10.46-5.678-13.466-7.324-9.529-5.215-54.075-27.267-66.034-32.689a79998.52 79998.52 0 0 0-16.536-7.496c-115.362-52.289-266.199-96.768-399.964-117.941-12.65-2.003-27.106-4.299-32.124-5.103-11.413-1.829-18.076-1.709-31.376.562m-189 42.619a6629.032 6629.032 0 0 1-18.5 5.484c-45.087 13.257-128.639 43.019-157.275 56.023-3.451 1.568-6.475 2.85-6.72 2.85-.244 0-6.196 2.527-13.225 5.616-12.524 5.503-16.088 7.106-33.28 14.968-22.284 10.192-59.902 29.307-85.5 43.446-152.089 84.008-266.524 189.998-320.311 296.675l-7.678 15.228 5.307 10.671c2.919 5.869 5.655 10.272 6.08 9.784.426-.489 3.829-11.463 7.563-24.388 3.734-12.925 7.651-26.312 8.704-29.75l1.915-6.25h53.843l1.559 5.25c.858 2.888 10.802 37.2 22.098 76.25 24.13 83.419 23.909 82.71 24.972 80 .432-1.1 5.019-10.775 10.193-21.5l9.407-19.5 13.419-59.5c7.381-32.725 13.422-59.837 13.424-60.25.003-.413 10.467-.757 23.255-.765 12.788-.009 23.727-.346 24.31-.75.584-.404 3.272-3.885 5.976-7.735 37.287-53.107 87.097-111.164 145.927-170.091 38.129-38.191 55.745-54.682 88.837-83.165 52.986-45.605 112.198-90.42 171.7-129.951 10.175-6.76 17.825-12.243 17-12.183-.825.059-6.675 1.649-13 3.533m992.608 94.58c-.306 3.452-.829 9.877-1.161 14.277-3.154 41.724-14.884 92.545-32.619 141.32l-7.024 19.319 16.873 17.181c33.97 34.588 58.44 65.142 79.401 99.141l8.655 14.039h22.694l3.826-12c32.752-102.706 10.341-197.594-65.107-275.664-7.344-7.6-15.97-16.084-19.167-18.854l-5.814-5.037-.557 6.278m-47.043 189.527c-31.057 74.575-83.915 161.509-144.749 238.062-3.319 4.177-6.255 8.168-6.524 8.87-.561 1.461 13.782 32.318 15.022 32.318.726 0 8.476-15.574 22.642-45.5 32.854-69.409 55.556-116.236 56.841-117.25 1.667-1.315 63.32-1.91 66.621-.643 1.426.547 1.582 9.364 1.582 89.5 0 53.212.368 88.893.917 88.893 1.162 0 25.122-25.311 36.444-38.5l8.585-10 .027-64.75L1986 639h25.5c14.025 0 25.5-.361 25.5-.801 0-3.671-24.819-40.642-40.412-60.199-18.048-22.637-59.082-67-61.971-67-.637 0-3.361 5.288-6.052 11.75M1171 634.03c-38.172 6.473-62.507 18.304-85.273 41.457-57.384 58.358-46.88 165.167 20.551 208.973 35.411 23.004 83.995 30.304 125.722 18.888 21.886-5.987 44.197-18.693 60.222-34.298l9.27-9.026-11.547-11.762a3297.475 3297.475 0 0 1-20.294-20.867l-8.746-9.105-9.703 9.605c-43.71 43.271-112.98 28.5-130.823-27.895-6.138-19.402-5.784-42.772.927-61.262 20.141-55.487 91.891-67.693 133.021-22.628l6.35 6.958 19.662-20.055c10.813-11.03 19.661-20.63 19.661-21.333 0-2.135-15.987-17.31-24.5-23.256-15.527-10.844-36.759-19.823-54.49-23.043-10.07-1.828-42.092-2.693-50.01-1.351m265 .086c-2.475.496-8.1 1.633-12.5 2.525-71.715 14.549-116.997 79.669-107.032 153.923 7.863 58.59 48.452 101.461 108.532 114.634 15.468 3.391 52.423 3.387 68-.008 70.163-15.292 114.668-74.723 108.899-145.422-5.576-68.332-49.329-113.767-121.014-125.67-7.789-1.293-38.406-1.281-44.885.018M620 771v132h193v-53H682.967l.267-26.75.266-26.75 61.25-.258 61.25-.257v-51.97l-61.25-.257-61.25-.258v-52l64.75-.257 64.75-.258V639H620v132m233 0v132h181v-54H916V639h-63v132m-517.504-80.25c-12.298 29.053-20.692 62.672-23.533 94.25-1.077 11.97-1.014 13.007 1.48 24.441 1.433 6.567 2.72 12.056 2.861 12.197.141.141 8.035-26.455 17.543-59.101l17.286-59.358-5.655-10.589c-3.11-5.825-5.795-10.59-5.966-10.59-.172 0-1.979 3.938-4.016 8.75m1109.846-1.338c-29.962 5.72-51.818 25.985-60.535 56.13-3.573 12.354-3.3 39.253.525 51.765 8.464 27.689 26.888 46.368 52.668 53.398 9.043 2.466 32.837 2.485 42 .034 60.341-16.143 76.306-106.419 25.893-146.411-16.359-12.977-40.089-18.822-60.551-14.916M2050 717.5V744h13.441c7.393 0 13.682-.391 13.977-.868 1.296-2.096-11.643-47.289-14.538-50.777-.713-.859-3.277-1.355-7.002-1.355H2050v26.5M393.18 745.251c-4.123 14.4-4.65 12.239 6.271 25.739 12.553 15.519 12.925 15.794 10.615 7.844A8007.982 8007.982 0 0 1 402.952 754c-2.9-10.175-5.56-18.837-5.912-19.249-.351-.413-2.088 4.312-3.86 10.5M1704 794.5c0 30.525.195 55.5.434 55.5.57 0 33.846-36.791 34.806-38.482.443-.781-3.592-10.267-10.064-23.661a16298.142 16298.142 0 0 1-17.156-35.607c-3.494-7.288-6.728-13.25-7.186-13.25-.459 0-.834 24.975-.834 55.5m164.82-35.75c-4.426 9.212-11.2 23.275-15.052 31.25a4378.152 4378.152 0 0 0-11.266 23.5c-7.35 15.516-25.438 52.93-26.349 54.5-.735 1.265-4.511 1.5-24.153 1.5-19.644 0-23.417-.234-24.147-1.5-.476-.825-6.745-13.65-13.931-28.5l-13.066-27-3.075 3.5c-1.691 1.925-9.872 10.921-18.178 19.991l-15.103 16.49-.5 25.01-.5 25.009-24.357.268-24.357.268-14.143 13.203c-29.671 27.698-34.728 32.262-55.971 50.517-55.121 47.366-109.185 88.331-170.164 128.933-10.996 7.321-19.686 13.311-19.312 13.311.374 0 7.795-2.069 16.492-4.598 8.697-2.528 17.837-5.17 20.312-5.87 12.008-3.396 56.233-17.972 76.5-25.214 21.091-7.536 67.244-25.367 76.275-29.468 3.451-1.568 6.475-2.85 6.72-2.85.244 0 6.196-2.527 13.225-5.616 12.524-5.503 16.088-7.106 33.28-14.968 65.052-29.751 135.989-70.437 191.5-109.834 21.115-14.986 47.037-34.698 48.735-37.06 1.228-1.709.932-131.522-.3-131.522-.586 0-4.688 7.538-9.115 16.75M367.996 831.765 347.492 902.5l-8.683.5-8.683.5 5.286 11c16.847 35.058 45.029 71.893 74.609 97.518l5.814 5.037.578-6.778c3.892-45.64 8.941-74.414 19.538-111.349 2.227-7.762 4.049-14.665 4.049-15.34 0-.676-5.999-21.962-13.331-47.302l-13.332-46.074-7.422-8.856c-4.082-4.871-9.44-11.443-11.905-14.606-2.466-3.163-4.715-5.743-4.997-5.735-.282.008-9.74 31.845-21.017 70.75m112.696-44.934-8.633 17.839 2.827 9.915c2.682 9.408 2.865 9.736 3.576 6.415.412-1.925 3.176-14.263 6.141-27.419 2.966-13.155 5.242-24.07 5.057-24.254-.184-.185-4.22 7.692-8.968 17.504m1495.808-5.077c-4.95 5.821-15.197 17.019-22.771 24.884l-13.771 14.301.065 40.78.065 40.781-30.544.264-30.544.265v-13.515c0-7.432-.26-13.514-.579-13.514-.318 0-3.805 2.63-7.75 5.845-79.494 64.788-206.615 134.647-329.671 181.17-27.147 10.263-34.832 12.981-66.514 23.531-31.404 10.456-35.172 11.626-66.486 20.642-19.141 5.511-21.071 6.332-33.234 14.148-10.555 6.781-34.362 21.071-52.016 31.22-7.562 4.348-13.75 8.252-13.75 8.675 0 .423 2.362.804 5.25.846 2.888.043 16.05.676 29.25 1.407 23.279 1.289 139.366 1.423 149 .171 2.2-.286 9.4-.799 16-1.141 75.947-3.933 169.215-19.353 239-39.514 151.344-43.724 259.628-118.247 307.315-211.5l4.091-8-36.446-.262-36.446-.263-.257-65.903-.257-65.903-9 10.585m73.5 41.274v27.028l13.74-.278 13.739-.278 1.678-8.969c2.03-10.85 3.843-28.697 3.843-37.834V796h-33v27.028m-1533.776 67.74a368.3 368.3 0 0 0-2.196 7.995l-1.112 4.264-33.642-.264-33.641-.263-1.978-7.289c-2.42-8.923-2.601-8.748-6.994 6.789-9.725 34.398-16.596 73.585-18.245 104.06l-.679 12.56 5.381 4.555c43.94 37.188 111.382 72.443 184.882 96.645 71.031 23.39 138.751 36.659 233 45.655 2.475.236 12.15.92 21.5 1.52 9.35.601 19.025 1.309 21.5 1.575 8.966.962 119.965 1.293 138 .411 31.247-1.528 70.294-4.501 99-7.538 26.951-2.851 72.928-9.038 73.824-9.934.28-.28.254-.509-.058-.509-4.344 0-56.937-8.837-86.766-14.58-82.347-15.852-181.898-42.921-246.5-67.026-3.3-1.231-12.3-4.583-20-7.448-121.097-45.062-226.85-101.796-319.597-171.458l-4.597-3.453-1.082 3.733m-97.933 152.39c4.99 191.867 163.588 299.122 410.709 277.749 111.653-9.657 243.821-47.303 366.5-104.392a5925.98 5925.98 0 0 1 14.236-6.601c8.127-3.751 55.3-27.337 61.764-30.881 2.75-1.508 8.6-4.674 13-7.036 17.523-9.406 18.213-9.994 11.75-10.001-5.508-.007-52.151-4.655-71.25-7.101-19.435-2.489-22.199-2.37-58 2.489-49.422 6.707-104.25 11.481-156 13.583-21.221.861-110.602.592-116-.35-1.375-.24-9.025-.727-17-1.081-180.698-8.039-351.304-61.56-451.395-141.607l-8.895-7.113.581 22.342m953.209 73.959c-25.741 7.121-93.585 22.146-127.5 28.238-7.975 1.433-18.775 3.379-24 4.326l-9.5 1.721 5.5.754c16.819 2.304 55.639 6.432 73.761 7.842l14.262 1.11 6.238-3.406c9.218-5.034 35.986-20.668 45.739-26.715 4.675-2.898 10.688-6.574 13.362-8.169 13.53-8.066 13.859-8.943 2.138-5.701" fill-rule="evenodd"/></svg>